<svg width="228" height="86" viewBox="0 0 228 86" fill="none" xmlns="http://www.w3.org/2000/svg">
<g clip-path="url(#clip0_15_51)">
<path d="M22.7289 0.749084L14.5514 15.9036V25.0263H9.44287V15.9036L0.972656 0.749084H6.99718L12.0774 11.3235L16.9405 0.749084H22.7289Z" fill="#0D0D0D"/>
<path d="M38.7721 15.3604V0.440002H43.9656V15.3604C43.9656 17.9361 43.5596 19.9498 42.7569 21.3828C41.2555 24.0147 38.3849 25.3354 34.1451 25.3354C29.9053 25.3354 27.0252 24.0147 25.5143 21.3828C24.7023 19.9404 24.3057 17.9361 24.3057 15.3604V0.440002H29.4992V15.3604C29.4992 17.0275 29.6975 18.2451 30.0941 19.0132C30.7173 20.3713 32.0677 21.055 34.1451 21.055C36.2225 21.055 37.5634 20.3713 38.1772 19.0132C38.5738 18.2451 38.7721 17.0275 38.7721 15.3604Z" fill="#0D0D0D"/>
<path d="M71.1421 24.8858L64.5698 24.9701L56.8834 14.4612L54.4755 16.9807L54.5793 25.1012L49.5463 25.1668L49.2441 0.898967L54.2772 0.833403L54.3999 10.8271L63.72 0.702277L70.33 0.617981L60.4244 10.7335L71.1421 24.8764V24.8858Z" fill="#0D0D0D"/>
<path d="M71.0766 31.695L62.8897 46.8401V55.9628H57.7811V46.8401L49.3203 31.695H55.3448L60.4251 42.2694L65.2881 31.695H71.0766Z" fill="#0D0D0D"/>
<path d="M53.1254 84.7358H48.3662V60.468H55.8072L60.2547 79.5469L64.674 60.468H72.0299V84.7358H67.2707V68.3168C67.2707 67.8485 67.2708 67.1835 67.2896 66.3312C67.3085 65.4789 67.3085 64.8232 67.3085 64.3643L62.6815 84.7264H57.7146L53.116 64.3643C53.116 64.8232 53.116 65.4789 53.1348 66.3312C53.1537 67.1835 53.1537 67.8485 53.1537 68.3168V84.7358H53.1254Z" fill="#0D0D0D"/>
<path d="M137.063 84.8481H132.304V60.5803H139.745L144.192 79.6593L148.611 60.5803H155.967V84.8481H151.208V68.4292C151.208 67.9609 151.208 67.2959 151.227 66.4436C151.246 65.5912 151.246 64.9356 151.246 64.4767L146.619 84.8388H141.652L137.053 64.4767C137.053 64.9356 137.053 65.5912 137.072 66.4436C137.091 67.2959 137.091 67.9609 137.091 68.4292V84.8481H137.063Z" fill="#0D0D0D"/>
<path d="M170.056 85.56C166.562 85.56 163.89 84.614 162.039 82.7314C159.565 80.4179 158.318 77.0742 158.318 72.7189C158.318 68.3636 159.555 64.9356 162.039 62.7065C163.89 60.8145 166.562 59.8779 170.056 59.8779C173.55 59.8779 176.222 60.8239 178.073 62.7065C180.537 64.9356 181.774 68.27 181.774 72.7189C181.774 77.1679 180.537 80.4086 178.073 82.7314C176.222 84.6234 173.55 85.56 170.056 85.56ZM174.891 79.0411C176.071 77.5612 176.666 75.4539 176.666 72.7189C176.666 69.984 176.071 67.8953 174.881 66.4061C173.691 64.9169 172.086 64.177 170.056 64.177C168.026 64.177 166.411 64.9169 165.212 66.3967C164.012 67.8766 163.399 69.984 163.399 72.7189C163.399 75.4539 164.003 77.5612 165.212 79.0411C166.42 80.521 168.035 81.2609 170.056 81.2609C172.077 81.2609 173.691 80.521 174.891 79.0411Z" fill="#0D0D0D"/>
<path d="M202.105 60.5803V64.8794H194.786V84.8481H189.64V64.8794H182.284V60.5803H202.105Z" fill="#0D0D0D"/>
<path d="M216.24 85.56C212.747 85.56 210.074 84.614 208.223 82.7314C205.749 80.4179 204.503 77.0742 204.503 72.7189C204.503 68.3636 205.74 64.9356 208.223 62.7065C210.074 60.8145 212.747 59.8779 216.24 59.8779C219.734 59.8779 222.407 60.8239 224.257 62.7065C226.722 64.9356 227.959 68.27 227.959 72.7189C227.959 77.1679 226.722 80.4086 224.257 82.7314C222.407 84.6234 219.734 85.56 216.24 85.56ZM221.075 79.0411C222.255 77.5612 222.85 75.4539 222.85 72.7189C222.85 69.984 222.255 67.8953 221.066 66.4061C219.876 64.9169 218.271 64.177 216.24 64.177C214.21 64.177 212.595 64.9169 211.396 66.3967C210.197 67.8766 209.583 69.984 209.583 72.7189C209.583 75.4539 210.188 77.5612 211.396 79.0411C212.605 80.521 214.22 81.2609 216.24 81.2609C218.261 81.2609 219.876 80.521 221.075 79.0411Z" fill="#0D0D0D"/>
<path d="M105.117 0.78656H99.3385L90.6133 25.0544H95.9579L97.6482 20.0622L99.1024 15.6133H99.1213L102.181 6.33135L105.231 15.8849L106.666 20.0622L108.243 25.0544H113.786L105.117 0.78656Z" fill="#0D0D0D"/>
<path d="M105.117 60.468H99.3385L90.6133 84.7358H95.9579L97.6482 79.7436L99.1024 75.2946H99.1213L102.181 66.0128L105.231 75.5663L106.666 79.7436L108.243 84.7358H113.786L105.117 60.468Z" fill="#0D0D0D"/>
<path d="M105.117 31.695H99.3385L90.6133 55.9628H95.9579L97.6482 50.9706L99.1024 46.5217H99.1213L102.181 37.2398L105.231 46.7933L106.666 50.9706L108.243 55.9628H113.786L105.117 31.695Z" fill="#0D0D0D"/>
</g>
<defs>
<clipPath id="clip0_15_51">
<rect width="226.987" height="85.12" fill="white" transform="translate(0.972656 0.440002)"/>
</clipPath>
</defs>
</svg>
