<svg width="154" height="58" viewBox="0 0 154 58" fill="none" xmlns="http://www.w3.org/2000/svg">
<g clip-path="url(#clip0_1238_31)">
<path d="M14.7606 0.209702L9.21258 10.4913V16.6807H5.74665V10.4913L0 0.209702H4.08736L7.53407 7.38397L10.8334 0.209702H14.7606Z" fill="#D9D9D9"/>
<path d="M25.6449 10.1228V0H29.1685V10.1228C29.1685 11.8703 28.893 13.2365 28.3484 14.2087C27.3298 15.9944 25.3822 16.8904 22.5057 16.8904C19.6291 16.8904 17.6752 15.9944 16.6501 14.2087C16.0992 13.2301 15.8301 11.8703 15.8301 10.1228V0H19.3537V10.1228C19.3537 11.2539 19.4882 12.08 19.7573 12.601C20.1801 13.5224 21.0962 13.9863 22.5057 13.9863C23.9151 13.9863 24.8248 13.5224 25.2413 12.601C25.5103 12.08 25.6449 11.2539 25.6449 10.1228Z" fill="#D9D9D9"/>
<path d="M47.6067 16.5853L43.1478 16.6425L37.9329 9.51274L36.2992 11.2221L36.3697 16.7315L32.955 16.776L32.75 0.311379L36.1647 0.266897L36.248 7.04718L42.5712 0.177934L47.0558 0.120743L40.3353 6.98364L47.6067 16.579V16.5853Z" fill="#D9D9D9"/>
<path d="M47.5624 21.2051L42.0079 31.4804V37.6697H38.542V31.4804L32.8018 21.2051H36.8891L40.3358 28.3793L43.6352 21.2051H47.5624Z" fill="#D9D9D9"/>
<path d="M35.3832 57.1908H32.1543V40.7262H37.2026L40.2201 53.6704L43.2184 40.7262H48.209V57.1908H44.9802V46.0513C44.9802 45.7336 44.9802 45.2824 44.993 44.7042C45.0058 44.1259 45.0058 43.6811 45.0058 43.3697L41.8666 57.1845H38.4968L35.3768 43.3697C35.3768 43.6811 35.3768 44.1259 35.3896 44.7042C35.4024 45.2824 35.4024 45.7336 35.4024 46.0513V57.1908H35.3832Z" fill="#D9D9D9"/>
<path d="M92.3304 57.2671H89.1016V40.8025H94.1499L97.1674 53.7466L100.166 40.8025H105.156V57.2671H101.927V46.1276C101.927 45.8098 101.927 45.3587 101.94 44.7804C101.953 44.2021 101.953 43.7573 101.953 43.4459L98.8139 57.2607H95.444L92.324 43.4459C92.324 43.7573 92.324 44.2021 92.3369 44.7804C92.3497 45.3587 92.3497 45.8098 92.3497 46.1276V57.2671H92.3304Z" fill="#D9D9D9"/>
<path d="M114.715 57.75C112.345 57.75 110.532 57.1082 109.276 55.8309C107.598 54.2614 106.752 51.9928 106.752 49.0379C106.752 46.0831 107.591 43.7573 109.276 42.2449C110.532 40.9613 112.345 40.3259 114.715 40.3259C117.086 40.3259 118.899 40.9677 120.154 42.2449C121.827 43.7573 122.666 46.0195 122.666 49.0379C122.666 52.0563 121.827 54.255 120.154 55.8309C118.899 57.1145 117.086 57.75 114.715 57.75ZM117.995 53.3272C118.796 52.3232 119.2 50.8935 119.2 49.0379C119.2 47.1824 118.796 45.7653 117.989 44.755C117.182 43.7446 116.093 43.2426 114.715 43.2426C113.338 43.2426 112.242 43.7446 111.429 44.7486C110.615 45.7526 110.199 47.1824 110.199 49.0379C110.199 50.8935 110.609 52.3232 111.429 53.3272C112.249 54.3313 113.344 54.8333 114.715 54.8333C116.086 54.8333 117.182 54.3313 117.995 53.3272Z" fill="#D9D9D9"/>
<path d="M136.459 40.8025V43.7192H131.494V57.2671H128.002V43.7192H123.012V40.8025H136.459Z" fill="#D9D9D9"/>
<path d="M146.049 57.75C143.679 57.75 141.866 57.1082 140.61 55.8309C138.932 54.2614 138.086 51.9928 138.086 49.0379C138.086 46.0831 138.925 43.7573 140.61 42.2449C141.866 40.9613 143.679 40.3259 146.049 40.3259C148.42 40.3259 150.233 40.9677 151.488 42.2449C153.16 43.7573 154 46.0195 154 49.0379C154 52.0563 153.16 54.255 151.488 55.8309C150.233 57.1145 148.42 57.75 146.049 57.75ZM149.329 53.3272C150.13 52.3232 150.534 50.8935 150.534 49.0379C150.534 47.1824 150.13 45.7653 149.323 44.755C148.516 43.7446 147.427 43.2426 146.049 43.2426C144.672 43.2426 143.576 43.7446 142.763 44.7486C141.949 45.7526 141.533 47.1824 141.533 49.0379C141.533 50.8935 141.943 52.3232 142.763 53.3272C143.583 54.3313 144.678 54.8333 146.049 54.8333C147.42 54.8333 148.516 54.3313 149.329 53.3272Z" fill="#D9D9D9"/>
<path d="M70.6578 0.235123H66.737L60.8174 16.6997H64.4435L65.5902 13.3128L66.5768 10.2944H66.5897L68.6654 3.99701L70.7347 10.4786L71.7085 13.3128L72.7784 16.6997H76.539L70.6578 0.235123Z" fill="#D9D9D9"/>
<path d="M70.6578 40.7262H66.737L60.8174 57.1908H64.4435L65.5902 53.8038L66.5768 50.7854H66.5897L68.6654 44.4881L70.7347 50.9697L71.7085 53.8038L72.7784 57.1908H76.539L70.6578 40.7262Z" fill="#D9D9D9"/>
<path d="M70.6578 21.2051H66.737L60.8174 37.6697H64.4435L65.5902 34.2827L66.5768 31.2643H66.5897L68.6654 24.967L70.7347 31.4486L71.7085 34.2827L72.7784 37.6697H76.539L70.6578 21.2051Z" fill="#D9D9D9"/>
</g>
<defs>
<clipPath id="clip0_1238_31">
<rect width="154" height="57.75" fill="white"/>
</clipPath>
</defs>
</svg>
